<svg width="250" height="227" viewBox="0 0 250 227" fill="none" xmlns="http://www.w3.org/2000/svg">
<g clip-path="url(#clip0_444_494)">
<path d="M11.6167 216.307C15.0845 223.302 22.4443 226.305 22.4443 226.305C22.4443 226.305 24.1818 217.967 20.714 210.971C17.2463 203.976 9.88644 200.974 9.88644 200.974C9.88644 200.974 8.14897 209.312 11.6167 216.307Z" fill="#2F2E41"/>
<path d="M14.0001 214.006C20.2609 218.103 22.6721 226.24 22.6721 226.24C22.6721 226.24 14.9326 227.736 8.67192 223.639C2.4112 219.542 0 211.404 0 211.404C0 211.404 7.73943 209.909 14.0001 214.006Z" fill="#00A0B0"/>
<path d="M154.366 10.8976H115.304V11.5045H154.366V10.8976Z" fill="#F2F2F2"/>
<path d="M143.764 11.3528H143.206V16.9673H143.764V11.3528Z" fill="#F2F2F2"/>
<path d="M126.744 11.3528H126.186V16.9673H126.744V11.3528Z" fill="#F2F2F2"/>
<path d="M174.176 40.0324H135.114V40.6394H174.176V40.0324Z" fill="#F2F2F2"/>
<path d="M146.275 34.5696H145.717V40.1841H146.275V34.5696Z" fill="#F2F2F2"/>
<path d="M163.295 34.5696H162.737V40.1841H163.295V34.5696Z" fill="#F2F2F2"/>
<path d="M226.074 53.6893H187.011V54.2963H226.074V53.6893Z" fill="#F2F2F2"/>
<path d="M198.172 48.2265H197.614V53.8411H198.172V48.2265Z" fill="#F2F2F2"/>
<path d="M215.192 48.2265H214.634V53.8411H215.192V48.2265Z" fill="#F2F2F2"/>
<path d="M222.167 194.508H183.105V195.114H222.167V194.508Z" fill="#F2F2F2"/>
<path d="M194.266 189.045H193.708V194.659H194.266V189.045Z" fill="#F2F2F2"/>
<path d="M211.286 189.045H210.728V194.659H211.286V189.045Z" fill="#F2F2F2"/>
<path d="M155.482 97.088H116.42V97.695H155.482V97.088Z" fill="#F2F2F2"/>
<path d="M127.58 91.6252H127.022V97.2398H127.58V91.6252Z" fill="#F2F2F2"/>
<path d="M144.601 91.6252H144.042V97.2398H144.601V91.6252Z" fill="#F2F2F2"/>
<path d="M167.759 170.229H128.697V170.835H167.759V170.229Z" fill="#F2F2F2"/>
<path d="M139.857 164.766H139.299V170.38H139.857V164.766Z" fill="#F2F2F2"/>
<path d="M156.877 164.766H156.319V170.38H156.877V164.766Z" fill="#F2F2F2"/>
<path d="M230.259 148.074H191.197V148.681H230.259V148.074Z" fill="#F2F2F2"/>
<path d="M202.357 142.611H201.799V148.226H202.357V142.611Z" fill="#F2F2F2"/>
<path d="M219.377 142.611H218.819V148.226H219.377V142.611Z" fill="#F2F2F2"/>
<path d="M101.021 213.104H34.9536V212.587H100.546V187.513H40.5077L37.5912 180.904L38.0197 180.68L40.8068 186.996H101.021V213.104Z" fill="#2F2E41"/>
<path d="M43.7466 225.77C46.5029 225.77 48.7373 223.34 48.7373 220.342C48.7373 217.344 46.5029 214.914 43.7466 214.914C40.9903 214.914 38.7559 217.344 38.7559 220.342C38.7559 223.34 40.9903 225.77 43.7466 225.77Z" fill="#3F3D56"/>
<path d="M92.9409 225.77C95.6972 225.77 97.9316 223.34 97.9316 220.342C97.9316 217.344 95.6972 214.914 92.9409 214.914C90.1846 214.914 87.9502 217.344 87.9502 220.342C87.9502 223.34 90.1846 225.77 92.9409 225.77Z" fill="#3F3D56"/>
<path d="M150.928 108.414C152.635 108.414 154.018 106.909 154.018 105.053C154.018 103.197 152.635 101.693 150.928 101.693C149.222 101.693 147.839 103.197 147.839 105.053C147.839 106.909 149.222 108.414 150.928 108.414Z" fill="#3F3D56"/>
<path d="M108.088 178.983H33.8274L17.7593 121.855H124.635L124.538 122.191L108.088 178.983ZM34.179 178.466H107.739L123.987 122.372H18.4017L34.179 178.466Z" fill="#2F2E41"/>
<path d="M102.291 176.01H37.0654L22.9521 125.345H116.825L116.74 125.643L102.291 176.01Z" fill="#F2F2F2"/>
<path d="M125.967 116.752L125.507 116.619L128.644 103.761H146.888V104.278H129.01L125.967 116.752Z" fill="#2F2E41"/>
<path d="M119.295 139.174H22.9517V139.691H119.295V139.174Z" fill="#2F2E41"/>
<path d="M113.777 158.221H28.3091V158.738H113.777V158.221Z" fill="#2F2E41"/>
<path d="M71.4333 122.114H70.958V178.724H71.4333V122.114Z" fill="#2F2E41"/>
<path d="M92.7137 122.098L89.3018 178.707L89.7761 178.74L93.1881 122.131L92.7137 122.098Z" fill="#2F2E41"/>
<path d="M49.6878 122.097L49.2134 122.131L52.6055 178.741L53.0799 178.707L49.6878 122.097Z" fill="#2F2E41"/>
<path d="M250 226.098H0V226.705H250V226.098Z" fill="#2F2E41"/>
<path d="M166.13 18.7786C166.13 18.7786 170.209 31.4056 167.699 33.3482C165.189 35.2908 176.17 51.1555 176.17 51.1555L189.348 47.2702L182.132 33.9957C182.132 33.9957 181.191 20.7212 181.191 18.7786C181.191 16.836 166.13 18.7786 166.13 18.7786Z" fill="#A0616A"/>
<path opacity="0.1" d="M166.13 18.7786C166.13 18.7786 170.209 31.4056 167.699 33.3482C165.189 35.2908 176.17 51.1555 176.17 51.1555L189.348 47.2702L182.132 33.9957C182.132 33.9957 181.191 20.7212 181.191 18.7786C181.191 16.836 166.13 18.7786 166.13 18.7786Z" fill="black"/>
<path d="M159.284 108.786C159.284 108.786 158.093 124.975 159.284 133.393C160.475 141.811 162.261 165.122 162.261 165.122C162.261 165.122 162.261 209.155 168.809 209.802C175.358 210.45 180.121 211.097 180.716 208.507C181.311 205.917 177.739 204.622 179.525 203.327C181.311 202.032 181.907 197.499 179.525 192.319C177.144 187.138 179.525 134.688 179.525 134.688L190.836 167.712C190.836 167.712 192.027 194.909 193.218 198.794C194.408 202.679 192.027 209.802 196.194 210.45C200.362 211.097 205.124 207.212 207.506 205.917C209.887 204.622 203.934 204.622 205.124 203.974C206.315 203.327 209.887 201.384 208.696 200.737C207.506 200.089 206.315 169.007 206.315 169.007C206.315 169.007 203.041 102.635 198.873 100.045C194.706 97.4544 192.027 101.916 192.027 101.916L159.284 108.786Z" fill="#2F2E41"/>
<path d="M170 207.212V212.392C170 212.392 164.642 226.474 170 226.474C175.358 226.474 179.525 227.933 179.525 225.991V208.507L170 207.212Z" fill="#2F2E41"/>
<path d="M205.124 207.203V212.383C205.124 212.383 210.482 226.465 205.124 226.465C199.766 226.465 195.599 227.924 195.599 225.981V208.498L205.124 207.203Z" fill="#2F2E41"/>
<path d="M174.465 28.1679C180.383 28.1679 185.181 22.9495 185.181 16.5122C185.181 10.075 180.383 4.85654 174.465 4.85654C168.547 4.85654 163.749 10.075 163.749 16.5122C163.749 22.9495 168.547 28.1679 174.465 28.1679Z" fill="#A0616A"/>
<path d="M171.191 38.2047C171.191 38.2047 174.167 47.9178 178.93 45.9752L183.693 44.0325L192.027 106.196C192.027 106.196 185.479 116.557 175.953 110.081C166.428 103.606 171.191 38.2047 171.191 38.2047Z" fill="#00A0B0"/>
<path d="M179.525 36.2621L182.204 30.1105C182.204 30.1105 197.98 38.2047 200.361 40.7949C202.743 43.385 202.743 47.2703 202.743 47.2703L198.575 63.4587C198.575 63.4587 199.766 99.0733 199.766 100.368C199.766 101.663 203.933 108.786 200.957 106.196C197.98 103.606 197.385 101.016 195.003 104.901C192.622 108.786 187.264 113.319 187.264 113.319L179.525 36.2621Z" fill="#3F3D56"/>
<path d="M200.361 82.8848L198.575 101.016C198.575 101.016 187.859 111.376 190.241 112.024C192.622 112.672 193.813 110.081 193.813 110.081C193.813 110.081 197.98 114.614 200.361 112.024C202.743 109.434 208.696 84.8274 208.696 84.8274L200.361 82.8848Z" fill="#A0616A"/>
<path d="M174.693 0.0394142C172.317 -0.0529583 169.775 -0.0986516 167.772 1.29379C166.851 1.9926 166.042 2.85325 165.38 3.84052C163.43 6.52288 161.744 9.8979 162.469 13.226L163.31 12.869C163.31 13.7573 163.129 14.6346 162.779 15.4373C162.897 15.0624 163.294 15.6684 163.188 16.0475L162.261 19.3557C163.785 18.748 165.681 19.9785 165.913 21.7259C166.019 17.8834 166.385 13.4772 169.251 11.2272C170.696 10.0926 172.525 9.74623 174.285 9.43864C175.908 9.15488 177.61 8.8843 179.165 9.46561C180.72 10.0469 182.044 11.7767 181.691 13.5235C182.408 13.2549 183.21 13.7984 183.565 14.5276C183.919 15.2569 183.938 16.1171 183.948 16.9419C184.713 17.5294 185.582 16.3628 185.894 15.4029C186.625 13.1497 187.275 10.7512 186.881 8.4005C186.487 6.0498 184.726 3.80335 182.529 3.79538C182.796 3.47682 182.938 3.05794 182.926 2.62734L181.115 2.46093C181.575 2.39014 181.998 2.14772 182.311 1.77519C181.584 2.64527 175.868 0.0851225 174.693 0.0394142Z" fill="#2F2E41"/>
<path d="M174.167 34.3195C174.167 34.3195 169.321 29.1539 167.577 29.4703C165.833 29.7867 163.451 34.3195 163.451 34.3195C163.451 34.3195 149.163 39.4998 149.759 44.6801C150.354 49.8604 156.903 75.1144 156.903 75.1144C156.903 75.1144 162.261 105.549 157.498 108.786C152.735 112.024 180.121 120.442 180.716 116.557C181.311 112.672 182.502 73.8193 180.716 67.9914C178.93 62.1636 174.167 34.3195 174.167 34.3195Z" fill="#3F3D56"/>
<path d="M195.003 44.6801H202.365C202.365 44.6801 207.505 69.2865 208.101 71.8767C208.696 74.4668 209.887 86.77 209.291 86.77C208.696 86.77 196.789 84.1799 196.789 86.1225L195.003 44.6801Z" fill="#3F3D56"/>
<path d="M194.755 105.614H166.574C163.824 91.8535 163.594 78.5588 166.574 65.8568H194.755C190.207 78.3303 189.923 91.534 194.755 105.614Z" fill="#F2F2F2"/>
<path d="M155.117 88.7127L163.451 92.5979C163.451 92.5979 179.525 95.188 179.525 88.0651C179.525 80.9422 163.451 84.8274 163.451 84.8274L158.093 82.964L155.117 88.7127Z" fill="#A0616A"/>
<path d="M156.902 40.7949L149.758 42.7375L144.401 77.057C144.401 77.057 142.615 86.1225 145.591 86.77C148.568 87.4176 156.902 92.5979 156.902 92.5979C156.902 92.5979 158.093 82.8848 160.474 82.8848L154.521 77.7045L158.093 55.0407L156.902 40.7949Z" fill="#3F3D56"/>
<path d="M55.873 107.103H16.8105V107.71H55.873V107.103Z" fill="#F2F2F2"/>
<path d="M27.9711 101.64H27.4131V107.255H27.9711V101.64Z" fill="#F2F2F2"/>
<path d="M44.9911 101.64H44.4331V107.255H44.9911V101.64Z" fill="#F2F2F2"/>
<path d="M69.5449 17.2708H30.4824V17.8778H69.5449V17.2708Z" fill="#F2F2F2"/>
<path d="M58.9423 17.726H58.3843V23.3406H58.9423V17.726Z" fill="#F2F2F2"/>
<path d="M41.9218 17.726H41.3638V23.3406H41.9218V17.726Z" fill="#F2F2F2"/>
<path d="M108.886 77.0579H69.8237V77.6648H108.886V77.0579Z" fill="#F2F2F2"/>
<path d="M98.2836 77.5131H97.7256V83.1276H98.2836V77.5131Z" fill="#F2F2F2"/>
<path d="M81.2636 77.5131H80.7056V83.1276H81.2636V77.5131Z" fill="#F2F2F2"/>
<path d="M42.48 76.7544H3.41748V77.3613H42.48V76.7544Z" fill="#F2F2F2"/>
<path d="M31.8774 77.2096H31.3193V82.8241H31.8774V77.2096Z" fill="#F2F2F2"/>
<path d="M14.8574 77.2096H14.2993V82.8241H14.8574V77.2096Z" fill="#F2F2F2"/>
<path d="M89.355 46.4056H50.2925V47.0126H89.355V46.4056Z" fill="#F2F2F2"/>
<path d="M61.4531 40.9428H60.895V46.5574H61.4531V40.9428Z" fill="#F2F2F2"/>
<path d="M78.4736 40.9428H77.9155V46.5574H78.4736V40.9428Z" fill="#F2F2F2"/>
</g>
<defs>
<clipPath id="clip0_444_494">
<rect width="250" height="227" fill="white"/>
</clipPath>
</defs>
</svg>
