<svg width="72" height="35" viewBox="0 0 72 35" fill="none" xmlns="http://www.w3.org/2000/svg">
<path d="M43.081 17.5C43.081 27.1655 33.4365 34.9996 21.5399 34.9996C9.64327 34.9996 0 27.1651 0 17.5C0 7.83541 9.64339 0.000366211 21.5399 0.000366211C33.4363 0.000366211 43.081 7.8358 43.081 17.5Z" fill="#D9222A"/>
<path d="M50.4586 0C44.8932 0 39.8215 1.71545 35.9987 4.53011C35.2199 5.10423 34.493 5.7231 33.8237 6.38204H38.1757C38.7715 6.9706 39.3201 7.58966 39.8179 8.23554H32.1818C31.7225 8.83238 31.3081 9.45115 30.9407 10.0886H41.0583C41.4055 10.6916 41.71 11.3102 41.9704 11.9414H30.0289C29.7781 12.5491 29.569 13.1678 29.4028 13.7945H42.5956C42.9182 15.0121 43.081 16.2543 43.0806 17.4999C43.0806 19.4434 42.6901 21.313 41.9701 23.0589H30.0286C30.2883 23.6904 30.5926 24.3092 30.9401 24.912H41.058C40.6905 25.5497 40.2757 26.1686 39.8164 26.7656H32.1814C32.6791 27.411 33.2277 28.0297 33.8236 28.6176H38.1747C37.5063 29.2778 36.7791 29.8973 35.9991 30.4712C39.8219 33.2853 44.8931 35 50.459 35C62.3556 35 72.0001 27.1655 72.0001 17.5004C72.0001 7.83622 62.3556 0.000779498 50.459 0.000779498" fill="#EE9F2D"/>
<path d="M69.1281 27.2549C69.1281 26.9431 69.4391 26.6894 69.8236 26.6894C70.2081 26.6894 70.5191 26.9431 70.5191 27.2549C70.5191 27.5668 70.2081 27.8205 69.8236 27.8205C69.4391 27.8205 69.1281 27.5668 69.1281 27.2549ZM69.8236 27.6847C70.1157 27.6846 70.3524 27.4922 70.3526 27.2549C70.3526 27.0178 70.116 26.8258 69.8243 26.8256H69.8236C69.5321 26.8253 69.2956 27.017 69.2951 27.2537V27.255C69.2949 27.4922 69.5313 27.6846 69.8231 27.6848C69.8232 27.6847 69.8235 27.6847 69.8236 27.6847ZM69.7296 27.5034H69.5872V27.0065H69.8451C69.8991 27.0065 69.954 27.0065 70.0017 27.0313C70.0512 27.0585 70.0792 27.1065 70.0792 27.156C70.0792 27.2117 70.0386 27.2636 69.9731 27.2839L70.0857 27.5033H69.9279L69.8344 27.3066H69.7299L69.7296 27.5034ZM69.7296 27.2216H69.8086C69.8381 27.2216 69.8692 27.2237 69.8957 27.2119C69.9191 27.1997 69.9312 27.1769 69.9312 27.1549C69.9306 27.1345 69.9178 27.1157 69.8967 27.1044C69.8718 27.0918 69.8324 27.0946 69.8057 27.0946H69.7296V27.2216ZM16.5099 19.4162C16.2644 19.393 16.1565 19.3868 15.9879 19.3868C14.6624 19.3868 13.9914 19.756 13.9914 20.4854C13.9914 20.9349 14.3188 21.2209 14.8298 21.2209C15.7825 21.2209 16.4689 20.484 16.5099 19.4162ZM18.2104 22.633H16.2729L16.3174 21.8847C15.7263 22.4759 14.9379 22.7571 13.8663 22.7571C12.5988 22.7571 11.7299 21.9528 11.7299 20.785C11.7299 19.0278 13.2414 18.0025 15.8359 18.0025C16.1008 18.0025 16.4409 18.0219 16.7888 18.058C16.8613 17.8201 16.8803 17.718 16.8803 17.59C16.8803 17.1115 16.4728 16.9332 15.3804 16.9332C14.2364 16.9227 13.2928 17.1546 12.9054 17.2581C12.9298 17.1383 13.2294 15.634 13.2294 15.634C14.3948 15.3566 15.1633 15.2522 16.0284 15.2522C18.0362 15.2522 19.0999 15.9846 19.0978 17.3689C19.1018 17.7398 19.0262 18.1976 18.9083 18.7992C18.7054 19.8456 18.2699 22.0867 18.2104 22.633ZM10.7515 22.633H8.41307L9.7525 15.8089L6.76152 22.633H5.16805L4.97101 15.8479L3.56305 22.633H1.37402L3.20245 13.7559H6.56496L6.76896 18.7248L8.81999 13.7559H12.56L10.7515 22.633ZM53.3477 19.4162C53.1032 19.393 52.9948 19.3868 52.8266 19.3868C51.5017 19.3868 50.8306 19.756 50.8306 20.4854C50.8306 20.9349 51.1577 21.2209 51.6685 21.2209C52.6213 21.2209 53.3082 20.484 53.3477 19.4162ZM55.0498 22.633H53.1122L53.1562 21.8847C52.565 22.4759 51.7762 22.7571 50.7055 22.7571C49.4377 22.7571 48.5695 21.9528 48.5695 20.785C48.5695 19.0278 50.0801 18.0025 52.6751 18.0025C52.94 18.0025 53.2795 18.0219 53.6272 18.058C53.6996 17.8201 53.7187 17.718 53.7187 17.59C53.7187 17.1115 53.3117 16.9332 52.2192 16.9332C51.0753 16.9227 50.1328 17.1546 49.7437 17.2581C49.7682 17.1383 50.0688 15.634 50.0688 15.634C51.2343 15.3566 52.0023 15.2522 52.8664 15.2522C54.8752 15.2522 55.9388 15.9846 55.9368 17.3689C55.9406 17.7398 55.8652 18.1976 55.7473 18.7992C55.5452 19.8456 55.1088 22.0867 55.0498 22.633ZM28.6031 22.5233C27.9631 22.687 27.4642 22.7571 26.9231 22.7571C25.7277 22.7571 25.0752 22.199 25.0752 21.1712C25.0582 20.8523 25.2472 20.013 25.3957 19.247C25.5307 18.5727 26.4096 14.3209 26.4096 14.3209H28.7341L28.4626 15.4136H29.8664L29.5494 17.1486H28.1404C27.8704 18.5215 27.4859 20.2317 27.4815 20.4584C27.4815 20.8304 27.7259 20.9929 28.282 20.9929C28.5485 20.9929 28.7548 20.9708 28.9124 20.9247L28.6031 22.5233ZM35.7301 22.4648C34.9316 22.6631 34.1611 22.759 33.3446 22.7573C30.7426 22.7553 29.3862 21.6512 29.3862 19.537C29.3862 17.0692 31.1118 15.2526 33.4541 15.2526C35.3706 15.2526 36.5946 16.2697 36.5946 17.8649C36.5946 18.3942 36.5106 18.9109 36.308 19.6404H31.6792C31.5226 20.6876 32.3475 21.1239 33.6996 21.1239C34.5318 21.1239 35.2821 20.9846 36.1166 20.6693L35.7301 22.4648ZM34.4235 18.185C34.4364 18.0346 34.6701 16.8964 33.342 16.8964C32.6015 16.8964 32.072 17.355 31.8564 18.185H34.4235ZM19.6132 17.6959C19.6132 18.6091 20.1583 19.2388 21.3942 19.7116C22.3413 20.0732 22.4877 20.1805 22.4877 20.5081C22.4877 20.9582 22.0702 21.1614 21.1448 21.1614C20.4472 21.1614 19.7983 21.0729 19.0498 20.8765C19.0498 20.8765 18.7423 22.4677 18.7282 22.5438C19.2598 22.6381 19.7338 22.7252 21.1617 22.7573C23.6292 22.7573 24.7687 21.994 24.7687 20.3444C24.7687 19.3524 24.2916 18.7703 23.1203 18.3328C22.1398 17.9672 22.0274 17.8856 22.0274 17.5485C22.0274 17.1581 22.4158 16.959 23.1718 16.959C23.6308 16.959 24.2578 16.9988 24.8518 17.0674L25.1848 15.393C24.5793 15.315 23.6613 15.2525 23.1268 15.2525C20.5107 15.2526 19.6052 16.3627 19.6132 17.6959ZM47.1039 15.4423C47.7533 15.4423 48.3588 15.5808 49.1933 15.922L49.5759 13.9953C49.2334 13.886 48.0274 13.2446 47.0058 13.2446C45.4409 13.2446 44.1181 13.8755 43.1875 14.9166C41.8304 14.5514 41.2725 15.2895 40.5886 16.0248L39.9811 16.1397C40.027 15.8976 40.0686 15.6571 40.0545 15.4138H37.907C37.6136 17.648 37.0936 19.9109 36.6865 22.148L36.5804 22.6331H38.9199C39.3104 20.5718 39.5244 19.2521 39.6544 18.3589L40.5354 17.9607C40.667 17.5632 41.0788 17.4286 41.9054 17.4449C41.7943 17.9332 41.7387 18.4287 41.7394 18.9252C41.7394 21.2869 43.3078 22.7574 45.8254 22.7574C46.4739 22.7574 47.0303 22.688 47.8919 22.4983L48.3035 20.4745C47.5286 20.7846 46.8924 20.9304 46.3164 20.9304C44.957 20.9304 44.1344 20.1151 44.1344 18.7676C44.1344 16.8128 45.3579 15.4423 47.1039 15.4423Z" fill="black"/>
<path d="M11.4252 22.1055H9.0863L10.4268 15.2823L7.43571 22.1055H5.84175L5.64471 15.3213L4.23676 22.1055H2.04785L3.87628 13.2297H7.23879L7.33334 18.7245L9.60181 13.2297H13.2338L11.4252 22.1055Z" fill="white"/>
<path d="M66.9022 13.7563L66.3837 16.3212C65.7442 15.6375 65.0572 15.1428 64.1502 15.1428C62.9703 15.1428 61.8963 15.8696 61.1932 16.939C60.2143 16.7741 59.2016 16.4942 59.2016 16.4942L59.2011 16.5007C59.2801 15.9027 59.3116 15.538 59.3046 15.4141H57.1566C56.864 17.6483 56.344 19.9111 55.9377 22.1483L55.8306 22.6334H58.1696C58.4856 20.9667 58.7274 19.5828 58.9056 18.485C59.7045 17.8985 60.1046 17.3867 60.9121 17.4208C60.5546 18.1233 60.3451 18.9322 60.3451 19.7623C60.3451 21.5671 61.469 22.7577 63.169 22.7577C64.026 22.7577 64.6835 22.5177 65.325 21.9611L65.2155 22.6322H67.4277L69.2087 13.7564L66.9022 13.7563ZM63.9777 20.9649C63.1816 20.9649 62.7797 20.4864 62.7797 19.5419C62.7797 18.123 63.5323 17.1169 64.5932 17.1169C65.3966 17.1169 65.8316 17.6145 65.8316 18.5314C65.8317 19.9624 65.0672 20.9649 63.9777 20.9649Z" fill="black"/>
<path d="M17.1825 18.8902C16.9375 18.8672 16.829 18.8611 16.661 18.8611C15.3355 18.8611 14.6649 19.2303 14.6649 19.9594C14.6649 20.4082 14.9924 20.6952 15.5024 20.6952C16.4561 20.6951 17.1426 19.9582 17.1825 18.8902ZM18.8839 22.1059H16.9464L16.9904 21.3588C16.3999 21.949 15.6104 22.2313 14.5399 22.2313C13.2719 22.2313 12.4033 21.427 12.4033 20.2592C12.4033 18.5012 13.9144 17.4766 16.5093 17.4766C16.7743 17.4766 17.1144 17.4961 17.4619 17.5323C17.5344 17.2943 17.5535 17.1923 17.5535 17.0635C17.5535 16.5849 17.1464 16.4075 16.0539 16.4075C14.9095 16.397 13.9664 16.6289 13.5785 16.7313C13.603 16.6119 13.9025 15.1093 13.9025 15.1093C15.0674 14.8307 15.8369 14.7263 16.7009 14.7263C18.7093 14.7263 19.7733 15.4591 19.7714 16.8422C19.7749 17.2147 19.6989 17.6722 19.5813 18.2729C19.3789 19.3184 18.943 21.5607 18.8839 22.1059ZM50.2493 13.4689L49.8664 15.396C49.0324 15.0552 48.4264 14.9164 47.7776 14.9164C46.0315 14.9164 44.8076 16.2869 44.8076 18.2414C44.8076 19.5888 45.6304 20.4039 46.9897 20.4039C47.5657 20.4039 48.2012 20.2584 48.9761 19.9481L48.5656 21.971C47.7035 22.1618 47.1477 22.2313 46.4986 22.2313C43.9814 22.2313 42.4125 20.7608 42.4125 18.3991C42.4125 15.2257 44.5796 13.0078 47.6791 13.0078C48.6999 13.0079 49.9064 13.3597 50.2493 13.4689ZM54.0225 18.8902C53.7776 18.8672 53.6696 18.8611 53.5008 18.8611C52.1759 18.8611 51.5049 19.2303 51.5049 19.9594C51.5049 20.4082 51.8324 20.6952 52.3428 20.6952C53.2954 20.6951 53.9824 19.9582 54.0225 18.8902ZM55.7238 22.1059H53.7858L53.8304 21.3588C53.2394 21.949 52.4504 22.2313 51.3799 22.2313C50.1123 22.2313 49.2434 21.427 49.2434 20.2592C49.2434 18.5012 50.7549 17.4766 53.3488 17.4766C53.6144 17.4766 53.9538 17.4961 54.3017 17.5323C54.3738 17.2943 54.3933 17.1923 54.3933 17.0635C54.3933 16.5849 53.9861 16.4075 52.8939 16.4075C51.7499 16.397 50.8064 16.6289 50.4183 16.7313C50.4428 16.6119 50.7428 15.1093 50.7428 15.1093C51.9078 14.8307 52.6767 14.7263 53.5407 14.7263C55.5496 14.7263 56.6131 15.4591 56.6106 16.8422C56.6146 17.2147 56.5391 17.6722 56.4211 18.2729C56.2193 19.3184 55.7824 21.5607 55.7238 22.1059ZM29.2772 21.9966C28.6366 22.1603 28.1376 22.2313 27.5972 22.2313C26.4017 22.2313 25.7493 21.6731 25.7493 20.6453C25.7327 20.3257 25.9219 19.4872 26.0703 18.7213C26.2047 18.046 27.0837 13.7947 27.0837 13.7947H29.4078L29.1366 14.8877H30.3296L30.012 16.6219H28.815C28.545 17.9957 28.1595 19.7046 28.1555 19.9317C28.1555 20.3051 28.4004 20.4662 28.956 20.4662C29.2226 20.4662 29.4286 20.4451 29.5865 20.3988L29.2772 21.9966ZM36.404 21.9389C35.606 22.1371 34.8346 22.2325 34.0186 22.2313C31.4164 22.2293 30.0602 21.1252 30.0602 19.0109C30.0602 16.5423 31.7856 14.7262 34.128 14.7262C36.0445 14.7262 37.2685 15.7429 37.2685 17.3389C37.2685 17.8687 37.1845 18.3853 36.9824 19.1144H32.3536C32.1969 20.1616 33.0219 20.5985 34.374 20.5985C35.2056 20.5985 35.9566 20.4586 36.7906 20.1425L36.404 21.9389ZM35.0971 17.6578C35.111 17.5079 35.3443 16.3693 34.0156 16.3693C33.2755 16.3693 32.7461 16.8292 32.5306 17.6578H35.0971ZM20.2868 17.1699C20.2868 18.0831 20.8318 18.712 22.0678 19.1855C23.0149 19.5471 23.1613 19.6546 23.1613 19.9822C23.1613 20.4322 22.7433 20.6353 21.8187 20.6353C21.1208 20.6353 20.4717 20.5468 19.7227 20.3505C19.7227 20.3505 19.4162 21.9417 19.4022 22.0177C19.9327 22.112 20.4072 22.1981 21.8352 22.2313C24.3031 22.2313 25.4422 21.4681 25.4422 19.8188C25.4422 18.8264 24.9657 18.2443 23.7938 17.8069C22.8137 17.4404 22.7002 17.36 22.7002 17.0225C22.7002 16.6325 23.0897 16.4318 23.8453 16.4318C24.3038 16.4318 24.9308 16.4728 25.5257 16.5415L25.8583 14.8667C25.2532 14.7887 24.3352 14.7262 23.8007 14.7262C21.1843 14.7262 20.2792 15.8355 20.2868 17.1699ZM68.1006 22.1059H65.888L65.9981 21.4339C65.3564 21.9912 64.6991 22.2313 63.8419 22.2313C62.142 22.2313 61.0186 21.0407 61.0186 19.2358C61.0186 16.8346 62.7611 14.8105 64.8235 14.8105C65.7306 14.8105 66.417 15.1115 67.056 15.7948L67.575 13.23H69.8815L68.1006 22.1059ZM64.6511 20.4379C65.7401 20.4379 66.5051 19.4354 66.5051 18.0052C66.5051 17.0883 66.0696 16.5907 65.2661 16.5907C64.2056 16.5907 63.4523 17.5963 63.4523 19.0158C63.4522 19.9601 63.8551 20.4379 64.6511 20.4379ZM57.8301 14.8878C57.5371 17.122 57.0173 19.3851 56.6106 21.6208L56.5036 22.106H58.8425C59.6791 17.6921 59.8814 16.83 61.193 16.9381C61.4021 16.0346 61.7909 15.2434 62.0809 14.8441C61.1014 14.6783 60.5544 15.128 59.8384 15.9823C59.8949 15.613 59.9983 15.2543 59.9778 14.8879L57.8301 14.8878ZM38.5798 14.8878C38.2862 17.122 37.7663 19.3851 37.3597 21.6208L37.2532 22.106H39.5931C40.4287 17.6921 40.6307 16.83 41.9415 16.9381C42.1515 16.0346 42.5405 15.2434 42.8294 14.8441C41.8509 14.6783 41.3034 15.128 40.5879 15.9823C40.6445 15.613 40.7468 15.2543 40.7274 14.8879L38.5798 14.8878ZM69.128 21.5407C69.1275 21.2288 69.4383 20.9757 69.8221 20.9754H69.8235C70.2072 20.975 70.5187 21.2275 70.519 21.5391V21.5407C70.5189 21.8528 70.2076 22.1057 69.8235 22.1059C69.4394 22.1057 69.1281 21.8528 69.128 21.5407ZM69.8235 21.9701C70.1152 21.9703 70.3518 21.7782 70.3519 21.5413V21.5409C70.3522 21.3037 70.1157 21.1113 69.824 21.1112H69.8235C69.5313 21.1113 69.2947 21.3036 69.2946 21.5409C69.2948 21.778 69.5316 21.9701 69.8235 21.9701ZM69.7294 21.7877H69.5869V21.2923H69.8452C69.8988 21.2923 69.9543 21.2932 70.0008 21.3171C70.0508 21.3446 70.0792 21.3918 70.0792 21.4413C70.0792 21.4973 70.0388 21.5497 69.9727 21.5697L70.0856 21.7876H69.9272L69.8337 21.5918H69.7293L69.7294 21.7877ZM69.7294 21.5071H69.8078C69.8373 21.5071 69.8694 21.5089 69.8953 21.4973C69.9188 21.4851 69.9308 21.4621 69.9308 21.44C69.9297 21.4195 69.9171 21.4006 69.8964 21.389C69.8719 21.3776 69.8313 21.3808 69.8048 21.3808H69.7293L69.7294 21.5071Z" fill="white"/>
</svg>
