<svg width="72" height="21" viewBox="0 0 72 21" fill="none" xmlns="http://www.w3.org/2000/svg">
<path d="M12.1874 1.00187C11.285 0.33474 10.1074 0.000366211 8.65456 0.000366211H3.0301C2.58473 0.000366211 2.33868 0.239881 2.29194 0.718449L0.00717184 16.1408C-0.0165741 16.2922 0.0186686 16.4308 0.112578 16.5567C0.20595 16.6829 0.32339 16.7456 0.464039 16.7456H3.13562C3.6042 16.7456 3.86175 16.5067 3.90903 16.0275L4.54168 11.8697C4.56478 11.6682 4.64719 11.5044 4.78784 11.3782C4.92838 11.2523 5.10417 11.1699 5.31508 11.1322C5.526 11.0948 5.72489 11.0758 5.91271 11.0758C6.09999 11.0758 6.32251 11.0886 6.58071 11.1137C6.83826 11.1388 7.00244 11.1512 7.07282 11.1512C9.08811 11.1512 10.67 10.5405 11.8185 9.31788C12.9664 8.09592 13.5411 6.40141 13.5411 4.23364C13.5411 2.74687 13.0895 1.66969 12.1874 1.00152V1.00187ZM9.28753 5.63272C9.16998 6.51487 8.86569 7.09419 8.37358 7.37149C7.88136 7.64913 7.17833 7.78732 6.26449 7.78732L5.10438 7.82498L5.70211 3.78027C5.74874 3.50332 5.901 3.36467 6.15898 3.36467H6.82709C7.76403 3.36467 8.44407 3.5099 8.86591 3.79921C9.28753 4.08922 9.42818 4.70054 9.28753 5.63272Z" fill="#003087"/>
<path d="M71.5424 0H68.9414C68.6829 0 68.5307 0.13865 68.4843 0.416062L66.1993 16.1411L66.1641 16.2167C66.1641 16.3433 66.2109 16.4624 66.3049 16.5759C66.3981 16.6891 66.5158 16.7458 66.6563 16.7458H68.9767C69.4212 16.7458 69.6674 16.5069 69.715 16.0277L71.9998 0.567303V0.529753C71.9997 0.176777 71.8469 0.00046367 71.5424 0.00046367V0Z" fill="#009CDE"/>
<path d="M40.1161 6.08667C40.1161 5.96096 40.0691 5.84103 39.9759 5.72792C39.8819 5.61457 39.7764 5.5575 39.6595 5.5575H36.9528C36.6944 5.5575 36.4835 5.68413 36.3198 5.93543L32.5937 11.8325L31.047 6.16246C30.9292 5.75958 30.6718 5.5575 30.2737 5.5575H27.6368C27.5194 5.5575 27.414 5.61434 27.3208 5.72792C27.2268 5.84103 27.1802 5.96119 27.1802 6.08667C27.1802 6.13739 27.4087 6.88055 27.8656 8.31694C28.3225 9.7538 28.8146 11.3037 29.3419 12.967C29.8693 14.6299 30.1444 15.5124 30.168 15.6124C28.2462 18.4353 27.2857 19.9472 27.2857 20.1485C27.2857 20.4764 27.4377 20.64 27.7427 20.64H30.4494C30.707 20.64 30.9179 20.5143 31.0822 20.2622L40.0463 6.35114C40.0928 6.30123 40.1161 6.21342 40.1161 6.08655V6.08667Z" fill="#003087"/>
<path d="M65.3215 5.55749H62.6498C62.3213 5.55749 62.1228 5.97344 62.0525 6.80521C61.4424 5.79747 60.33 5.29291 58.7126 5.29291C57.0253 5.29291 55.5897 5.97344 54.4065 7.33427C53.2229 8.69511 52.6313 10.2958 52.6313 12.1352C52.6313 13.6223 53.0356 14.8066 53.8439 15.6883C54.6524 16.5709 55.7362 17.0113 57.0959 17.0113C57.7754 17.0113 58.4667 16.8599 59.1698 16.5577C59.8728 16.2554 60.423 15.8524 60.8222 15.3481C60.8222 15.3734 60.7982 15.4864 60.7519 15.6879C60.7045 15.8899 60.6814 16.0416 60.6814 16.1416C60.6814 16.5453 60.8334 16.7463 61.1385 16.7463H63.5643C64.009 16.7463 64.2671 16.5074 64.3371 16.0282L65.7786 6.16223C65.8017 6.01088 65.7667 5.87257 65.6731 5.7464C65.5789 5.62069 65.462 5.55749 65.3215 5.55749ZM60.7341 13.0045C60.1365 13.6346 59.4157 13.9494 58.5721 13.9494C57.8922 13.9494 57.342 13.7481 56.9199 13.3447C56.4979 12.9424 56.2869 12.3879 56.2869 11.6815C56.2869 10.7498 56.5799 9.96154 57.1661 9.31902C57.7511 8.67639 58.4783 8.35519 59.3454 8.35519C60.0011 8.35519 60.5461 8.56304 60.98 8.97864C61.4132 9.39459 61.6306 9.9679 61.6306 10.6989C61.6304 11.606 61.3316 12.3748 60.7341 13.0045Z" fill="#009CDE"/>
<path d="M25.3872 5.55749H22.7155C22.3869 5.55749 22.1882 5.97344 22.1178 6.80521C21.485 5.79747 20.3718 5.29291 18.7782 5.29291C17.0908 5.29291 15.6552 5.97344 14.4719 7.33427C13.2883 8.69511 12.6968 10.2958 12.6968 12.1352C12.6968 13.6223 13.1011 14.8066 13.9096 15.6883C14.7182 16.5709 15.8018 17.0113 17.1612 17.0113C17.8171 17.0113 18.4971 16.8599 19.2 16.5577C19.9031 16.2554 20.4656 15.8524 20.8874 15.3481C20.7934 15.6503 20.7468 15.915 20.7468 16.1416C20.7468 16.5453 20.899 16.7463 21.2037 16.7463H23.6293C24.0742 16.7463 24.3323 16.5074 24.4027 16.0282L25.8439 6.16223C25.867 6.01088 25.8319 5.87257 25.7385 5.7464C25.6446 5.62069 25.5276 5.55749 25.3872 5.55749ZM20.7997 13.0232C20.202 13.6414 19.4693 13.9494 18.6027 13.9494C17.9227 13.9494 17.3778 13.7481 16.968 13.3447C16.5577 12.9424 16.3528 12.3879 16.3528 11.6815C16.3528 10.7498 16.6456 9.96154 17.2317 9.31902C17.8172 8.67639 18.5438 8.35507 19.4112 8.35507C20.067 8.35507 20.6119 8.56304 21.0459 8.97864C21.4791 9.39459 21.6962 9.9679 21.6962 10.6989C21.6961 11.6313 21.3974 12.4065 20.7997 13.0232Z" fill="#003087"/>
<path d="M52.1212 1.00187C51.2189 0.33474 50.0416 0.000366211 48.5885 0.000366211H42.999C42.5303 0.000366211 42.2723 0.239881 42.2257 0.718449L39.9408 16.1408C39.917 16.2922 39.9523 16.4308 40.0463 16.5567C40.1392 16.6829 40.257 16.7456 40.3976 16.7456H43.28C43.5612 16.7456 43.7486 16.582 43.8426 16.2543L44.4754 11.8697C44.4987 11.6682 44.5807 11.5044 44.7215 11.3782C44.8622 11.2523 45.0378 11.1699 45.2489 11.1322C45.4596 11.0948 45.6585 11.0758 45.8464 11.0758C46.0338 11.0758 46.2562 11.0886 46.5142 11.1137C46.7719 11.1388 46.9365 11.1512 47.0063 11.1512C49.022 11.1512 50.6035 10.5405 51.7521 9.31788C52.9005 8.09592 53.4745 6.40141 53.4745 4.23364C53.4747 2.74687 53.0233 1.66958 52.1212 1.00152V1.00187ZM48.5182 7.22013C48.0026 7.59806 47.229 7.78697 46.1982 7.78697L45.0731 7.82487L45.6707 3.78003C45.7172 3.5032 45.8695 3.36432 46.1276 3.36432H46.7601C47.2758 3.36432 47.6858 3.38962 47.991 3.43988C48.295 3.49049 48.5885 3.64774 48.8697 3.91221C49.1511 4.17691 49.2915 4.56143 49.2915 5.06519C49.2915 6.124 49.0334 6.84185 48.5182 7.22013Z" fill="#009CDE"/>
</svg>
