<svg width="79" height="20" viewBox="0 0 79 20" fill="none" xmlns="http://www.w3.org/2000/svg">
<path d="M27.9063 19.7716L31.9016 0.3961H38.2922L34.2938 19.7716H27.9063ZM57.3823 0.813777C56.1165 0.42124 54.1324 0 51.6549 0C45.34 0 40.8922 2.6279 40.8541 6.39422C40.8186 9.17831 44.0298 10.7315 46.4537 11.6582C48.9414 12.6082 49.7775 13.2137 49.7656 14.0617C49.7496 15.3605 47.7791 15.9536 45.9421 15.9536C43.3845 15.9536 42.0256 15.6599 39.9268 14.9368L39.103 14.6289L38.2063 18.9662C39.699 19.5073 42.459 19.9757 45.3251 20C52.0428 20 56.4038 17.4021 56.4534 13.38C56.4772 11.1758 54.7747 9.49869 51.0877 8.1157C48.854 7.21938 47.486 6.62127 47.5005 5.71366C47.5005 4.9083 48.6584 4.04711 51.1606 4.04711C53.2501 4.02029 54.7642 4.39689 55.9437 4.78943L56.5163 5.01302L57.3823 0.813777ZM73.8276 0.395803H68.8896C67.3599 0.395803 66.2149 0.740833 65.5433 2.00257L56.0523 19.7588H62.763C62.763 19.7588 63.8599 17.3714 64.1081 16.8471C64.8414 16.8471 71.3606 16.8554 72.2925 16.8554C72.4837 17.5338 73.0701 19.7588 73.0701 19.7588H79L73.8276 0.395209V0.395803ZM65.9928 12.9073C66.5214 11.791 68.539 7.49097 68.539 7.49097C68.5014 7.54253 69.0637 6.36918 69.3863 5.64171L69.8181 7.31222C69.8181 7.31222 71.0418 11.9372 71.2976 12.907H65.9928V12.9073ZM22.4812 0.395803L16.2246 13.609L15.5581 10.9239C14.3933 7.82858 10.7644 4.47498 6.70752 2.79606L12.4285 19.7407L19.1899 19.7344L29.2509 0.395605L22.4812 0.395507" fill="#0E4595"/>
<path d="M10.3866 0.395142H0.0816819L0 0.798269C8.01713 2.40207 13.3218 6.27786 15.5243 10.9354L13.2836 2.0315C12.8968 0.804603 11.7748 0.438393 10.3869 0.395635" fill="#F2AE14"/>
</svg>
